PathFileType	3	(X/Y/Z)	D:\minhoCalibration\240510\subject3_KPNP\preferred\preferred03.trc
DataRate	CameraRate	NumFrames	NumMarkers	Units	OrigDataRate	OrigDataStartFrame	OrigNumFrames
200.0	200.0	31	10	mm	200.0	1	72	
Frame#	Time	Left_Ankle_Outer1			Left_Ankle_Inner1			Left_Knee_Outer1			Left_Knee_Inner1			Left_Wrist1			Right_Wrist1			Right_Knee_Inner1			Right_Knee_Outer1			Right_Ankle_Inner1			Right_Ankle_Outer1			
		X1	Y1	Z1	X2	Y2	Z2	X3	Y3	Z3	X4	Y4	Z4	X5	Y5	Z5	X6	Y6	Z6	X7	Y7	Z7	X8	Y8	Z8	X9	Y9	Z9	X10	Y10	Z10	
1	-0.005	-320.69382	122.23051	-538.86334	-372.76114	137.95586	-517.49036	-163.78835	516.26459	-433.60968	-229.28777	526.60681	-354.41306	-188.95903	880.37152	-635.38782	-372.85922	1131.5433	-444.54507	-253.12424	1029.6255	-72.592613	-296.61304	1108.5859	-113.98883	-334.04263	1036.6508	336.52176	-369.50421	1130.2422	325.42273
2	0	-321.1319	120.69791	-538.59045	-372.1615	137.06775	-518.15106	-166.14963	516.64917	-430.17673	-233.70877	526.98218	-352.35535	-188.43324	880.76288	-630.74567	-377.70151	1129.8657	-442.26797	-254.38268	1031.5956	-72.349785	-291.66815	1108.8551	-117.1152	-338.15475	1027.1259	333.90741	-369.66522	1122.1746	325.1423
3	0.005	-319.89117	120.33886	-539.18909	-371.87552	136.61543	-519.36639	-168.40436	517.17206	-426.70517	-237.65057	527.82281	-350.79941	-187.76657	881.16205	-626.92035	-382.34271	1127.7091	-439.88852	-257.02567	1029.3658	-71.345566	-291.52509	1106.7141	-118.69293	-341.72095	1018.1117	333.37299	-371.00793	1114.2064	326.68475
4	0.01	-318.36356	120.84038	-539.31531	-371.43555	136.25969	-520.24487	-170.83211	517.71008	-423.32745	-242.51947	527.58978	-349.66632	-186.85141	881.5639	-623.75104	-386.76468	1125.136	-437.19672	-259.0806	1025.2994	-71.527382	-295.14105	1104.205	-117.60243	-342.18411	1008.954	333.69867	-371.62228	1105.6859	327.61057
5	0.015	-317.86215	120.7466	-539.11304	-371.0632	135.86479	-520.73279	-173.05403	518.31964	-420.15121	-247.43753	527.89197	-349.7702	-185.80002	881.73218	-621.03088	-391.52975	1123.1404	-434.79492	-260.97446	1020.8318	-72.573593	-302.08206	1103.4623	-114.18034	-341.4928	999.05115	334.53333	-372.70956	1096.3323	328.74686
6	0.02	-317.41382	120.99689	-538.80981	-370.84399	135.78273	-520.99902	-175.12099	518.94611	-417.17957	-251.76138	528.34753	-349.35175	-184.59166	882.24969	-618.25012	-396.61383	1121.4972	-432.84119	-262.72668	1016.559	-73.869499	-310.46005	1100.8756	-111.04984	-338.95697	989.5495	335.72577	-374.14786	1086.6614	330.44083
7	0.025	-317.27203	121.3129	-538.38831	-370.80988	135.88261	-521.20032	-176.89737	519.6933	-414.59134	-256.20499	528.54553	-348.97375	-182.81641	883.02484	-615.82312	-400.91196	1119.8224	-431.36096	-264.75046	1012.2172	-74.56031	-319.62854	1096.0483	-108.16487	-333.90738	981.4021	336.99649	-376.31049	1075.4751	332.33066
8	0.03	-317.26205	121.75746	-538.04749	-371.05737	136.07721	-521.12903	-178.80516	520.20142	-412.12399	-260.39755	529.23163	-349.25815	-180.61313	884.06403	-613.85181	-405.05725	1118.9141	-430.54147	-267.36896	1007.3793	-74.748215	-328.44904	1089.3862	-105.58232	-329.51544	971.95673	337.87982	-378.68243	1062.3864	333.70898
9	0.035	-317.63107	122.40391	-537.30859	-371.34595	136.32161	-521.14502	-180.66643	520.82776	-409.98801	-264.19553	530.00903	-349.71771	-178.9261	885.22681	-611.72028	-407.9397	1117.6604	-430.76624	-270.60501	1001.6947	-74.554634	-336.46976	1082.501	-102.8074	-326.98682	961.76471	338.78152	-381.35052	1048.9009	335.5531
10	0.04	-317.7301	122.90475	-537.18671	-371.85294	136.45972	-521.11414	-182.37102	521.46234	-408.3949	-267.14435	530.89697	-350.55008	-177.41457	886.54938	-609.7865	-411.02469	1117.3303	-431.21396	-274.21436	995.14594	-74.160881	-344.03851	1075.1467	-100.27991	-325.52127	950.14575	339.31033	-384.14334	1034.1481	337.25278
11	0.045	-318.02789	123.25362	-536.88879	-372.09622	136.20328	-520.72742	-183.78294	522.3111	-407.3186	-270.70114	532.12921	-351.30173	-175.73433	888.21185	-607.99176	-413.92615	1116.7786	-432.05032	-278.3222	987.90137	-73.621468	-351.42593	1067.597	-98.082939	-324.77933	936.83954	339.08771	-386.76572	1017.9178	338.01947
12	0.05	-318.33051	123.50842	-536.76721	-372.50717	136.26927	-520.76904	-184.97026	523.27881	-406.85641	-272.29266	532.92548	-351.62668	-174.4198	889.94672	-606.21252	-416.9534	1116.0204	-432.8251	-282.70981	980.3233	-73.134781	-357.81464	1059.9941	-96.468422	-324.948	922.39148	338.30823	-389.42102	1000.9473	338.65253
13	0.055	-319.04443	123.45347	-536.50775	-373.18582	136.41876	-521.05463	-186.52872	524.21094	-406.51157	-273.87344	533.74194	-352.38873	-172.91289	891.86139	-604.68933	-420.07129	1115.0663	-433.51572	-287.17935	972.74194	-72.60672	-362.6684	1052.1456	-95.235413	-326.08679	906.47845	336.9324	-392.36099	982.83978	338.88147
14	0.06	-319.0657	123.95734	-536.62219	-373.70239	136.24284	-521.18414	-187.5421	525.30066	-406.80118	-275.28214	534.45923	-353.1348	-171.87077	893.72052	-602.93213	-423.36081	1113.8821	-433.96271	-290.79959	965.88885	-72.608398	-366.73431	1043.9274	-93.779846	-326.99112	890.03857	334.98849	-395.61798	963.72461	338.33853
15	0.065	-319.56451	123.86905	-536.72833	-374.22711	136.00502	-521.3847	-188.81644	526.39685	-407.22433	-276.44708	535.23059	-353.89639	-170.47099	895.88428	-601.43231	-426.45401	1112.5082	-434.21802	-295.29147	958.69641	-71.200516	-370.66907	1035.6696	-91.894928	-329.02844	872.39062	333.09814	-399.30881	943.71051	337.18549
16	0.07	-320.82071	123.20122	-536.46503	-374.7915	135.77951	-521.55658	-189.49716	527.03723	-408.36032	-277.29376	535.47809	-355.00934	-169.14606	898.08563	-599.82184	-429.19736	1110.813	-434.31946	-298.48911	951.9682	-70.667992	-374.90024	1027.5714	-89.559845	-330.51871	854.66736	330.59662	-403.28302	923.00336	335.23624
17	0.075	-320.55106	123.54859	-537.14606	-375.37848	135.36815	-521.9433	-190.23471	527.61969	-409.56879	-277.90189	535.70184	-355.995	-168.02364	900.33844	-597.93463	-432.09503	1109.0199	-434.25562	-301.38177	945.11456	-70.467964	-378.94778	1019.2488	-87.767014	-332.06622	836.5119	327.26947	-407.3374	901.66907	332.25024
18	0.08	-320.37955	123.46387	-537.74268	-375.83755	134.9455	-522.30023	-191.31483	527.93121	-410.78714	-278.21042	535.67407	-357.34821	-166.55341	902.55872	-596.17749	-435.58765	1106.9999	-433.88953	-303.77396	938.05011	-70.804176	-383.6171	1010.8613	-85.973572	-334.1626	818.39044	323.61505	-412.2291	880.03455	328.92923
19	0.085	-321.28036	122.80466	-537.95258	-376.27994	134.26837	-522.8324	-191.93556	527.88171	-412.49088	-278.58829	535.31067	-358.76358	-165.1882	904.80811	-594.15649	-438.39453	1104.4082	-433.80777	-306.38245	930.6911	-71.190689	-388.05594	1002.1597	-84.729637	-336.79819	799.62042	319.21536	-417.3645	857.79742	324.63763
20	0.09	-321.74786	122.1326	-538.37714	-376.6362	133.41698	-523.36249	-192.5119	527.74762	-414.31824	-278.16534	534.375	-360.8905	-163.79414	907.10925	-591.88513	-442.1355	1101.677	-433.60251	-308.15714	923.42627	-72.483978	-392.03351	993.15424	-83.867821	-339.68417	780.73657	314.08258	-422.91409	835.17761	319.60309
21	0.095	-322.05795	121.27159	-539.17078	-377.1817	132.80559	-524.0802	-193.43468	527.42639	-416.01581	-279.29446	533.84882	-361.87677	-162.2868	909.33746	-589.48608	-445.4274	1098.458	-433.67715	-310.12885	916.03076	-73.962242	-396.14511	984.39032	-83.227722	-342.68524	760.54327	307.73157	-428.24643	811.39624	313.39865
22	0.1	-322.29276	120.45476	-539.92633	-377.41385	131.64938	-524.88092	-194.2536	526.98779	-417.8139	-279.29669	533.25635	-363.92764	-160.73393	911.53546	-586.79181	-449.53772	1094.8149	-433.81033	-312.0275	908.64008	-75.621132	-399.811	975.59247	-82.641838	-346.97128	739.94574	300.6842	-434.6188	787.49615	306.22214
23	0.105	-322.396	119.46091	-540.85974	-377.75327	130.5858	-525.87158	-194.96515	526.37976	-419.62366	-280.41187	531.93237	-365.9393	-159.21738	913.53162	-583.96338	-453.80807	1090.4358	-433.89697	-313.82315	901.37109	-77.391937	-403.3493	967.25696	-82.438629	-351.44983	719.01068	292.67059	-440.98904	763.31714	298.18723
24	0.11	-322.43863	118.33452	-541.81445	-377.9407	129.40543	-527.10852	-195.75418	525.6026	-421.42126	-281.42136	530.9671	-367.99982	-157.57779	915.55676	-581.05011	-457.58517	1086.0975	-434.20013	-315.47156	894.29816	-79.264595	-406.59668	958.5036	-82.748878	-355.79999	697.76495	283.63779	-447.28574	738.46753	288.69595
25	0.115	-323.49829	116.41067	-542.17603	-378.0213	128.08195	-528.41589	-196.64189	524.91467	-423.08536	-282.61664	529.89417	-370.37753	-156.26924	917.20715	-577.91772	-461.35135	1081.3391	-434.58456	-317.17609	887.46448	-80.969597	-410.56271	950.44354	-82.998253	-360.28204	676.07678	273.46228	-453.58405	713.11694	277.94391
26	0.12	-322.37131	115.76913	-543.73297	-377.99396	126.65355	-529.67133	-197.39644	524.03143	-424.69501	-284.18527	529.01111	-372.966	-154.63025	918.66956	-574.94586	-465.24319	1076.1498	-434.91083	-318.95578	880.90295	-82.487709	-414.50604	942.27356	-83.701607	-364.28729	654.22412	262.2298	-459.38074	687.15106	265.7735
27	0.125	-322.55746	114.10405	-544.57574	-377.85681	125.21825	-530.94104	-198.36427	523.14722	-426.0195	-286.09967	527.8515	-375.21857	-153.12407	920.01123	-571.8797	-468.76709	1070.7689	-435.23932	-320.90091	874.44623	-83.710907	-418.20474	933.90216	-84.995583	-369.40085	633.20428	250.82407	-466.18869	661.79608	252.76184
28	0.13	-322.16336	112.89655	-545.49384	-377.70111	123.84308	-532.51233	-199.38326	522.30743	-427.0853	-288.09637	526.62817	-377.69	-151.80937	921.10315	-568.87463	-472.13019	1065.1779	-435.64981	-323.00034	868.14825	-84.715721	-422.31656	925.38464	-86.272507	-373.90646	612.2215	238.5639	-472.22137	636.31384	238.2867
29	0.135	-321.8024	111.40128	-546.44464	-377.39334	122.15286	-533.88385	-200.34218	521.24286	-427.97809	-290.25381	525.40955	-380.1304	-150.58142	921.76154	-565.92194	-475.26761	1059.1166	-436.8222	-325.35495	861.84271	-85.539787	-426.57202	916.52649	-87.716461	-384.75949	588.13031	230.49335	-478.20471	610.97821	222.59813
30	0.14	-321.40085	109.85645	-547.39301	-377.0574	120.62362	-535.22754	-201.48578	520.25946	-428.52713	-292.36829	524.22998	-382.49594	-149.08185	922.25909	-563.28162	-478.19745	1053.1409	-437.79559	-327.93991	855.45502	-86.402649	-431.11972	907.16211	-89.445786	-389.58862	564.52264	215.43021	-484.41095	586.10602	206.25591
31	0.145	-320.7757	108.5108	-548.16699	-376.8262	119.15163	-536.76636	-202.6115	519.18243	-428.98749	-294.57321	523.04462	-384.64249	-147.71269	922.64728	-560.87622	-480.85477	1047.3073	-438.75256	-330.871	848.67352	-87.263794	-436.03607	897.40247	-91.349472	-397.3909	541.49261	201.12979	-489.81979	561.32886	187.78592
